<svg id="basketSvg" xmlns="http://www.w3.org/2000/svg" preserveAspectRatio="xMidYMid" viewBox="0 0 647 535"><defs><style>.cls-1 {fill: #ec0094;fill-rule: evenodd;}</style></defs><path d="M645.64 112.68L581.2 274c-2.66 6.7-9.93 11.92-16.33 11.92h-261.2c-6.4 0-13.67-5.23-16.34-11.9L222.9 112.67c-5.78-14.45 7.4-26.76 17.4-26.76h387.94c10 0 23.18 12.3 17.4 26.76zm-49 10.24H271.25c-2.22 0-3 2.55-1.77 5.65l46.83 117.53c.62 1.57 2.38 2.82 3.93 2.82h227.37c1.55 0 3.3-1.25 3.93-2.82l46.83-117.53c1.23-3.1.44-5.65-1.77-5.65zm-35.7 206c10.23 0 18.5 8.28 18.5 18.5s-8.27 18.5-18.5 18.5h-312.2c-4.63 0-8.84-1.7-12.1-4.5-2.36-1.85-4.3-4.3-5.6-7.25l-139-317.24H18.56c-10.22 0-18.5-8.3-18.5-18.5C.06 8.2 8.34-.08 18.56-.08h86.06c9.03 0 16.54 6.45 18.17 15l137.6 314h300.54zm-250.17 85c33.44 0 60.54 27.1 60.54 60.5s-27.1 60.5-60.53 60.5-60.54-27.08-60.54-60.5c0-33.4 27.1-60.5 60.54-60.5zm1 89c15.2 0 27.52-12.3 27.52-27.5s-12.33-27.5-27.53-27.5c-15.2 0-27.52 12.3-27.52 27.5s12.32 27.5 27.52 27.5zm205.14-89c33.45 0 60.55 27.1 60.55 60.5s-27.1 60.5-60.54 60.5c-33.42 0-60.53-27.08-60.53-60.5 0-33.4 27.1-60.5 60.54-60.5zm0 89c15.2 0 27.53-12.3 27.53-27.5s-12.32-27.5-27.52-27.5-27.5 12.3-27.5 27.5 12.3 27.5 27.5 27.5z" class="cls-1"/></svg>