<svg height="1024" width="1024" xmlns="http://www.w3.org/2000/svg"><title/><path fill="none" d="M-1-1h1026v1026H-1z"/><g><title/><path d="M486.9 80.1c-55.9 3.3-111.5 17.8-161.8 42C203 180.9 114.9 294 88 426.5c-18.9 92.9-6.7 190 34.4 275C181.3 823.4 294.2 911.2 426.5 938c92.9 18.9 190 6.7 275-34.4 87.8-42.4 159.7-114.3 202.1-202.1 20.2-41.8 33.5-86.5 39.4-132.4 10.9-84-2.8-169-39.4-244.6-42.4-87.8-114.3-159.7-202.1-202.1C635 90.2 560.8 75.6 486.9 80.1zm176.9 236.1l-.3 47.3-46 .5c-52 .6-48.8 0-54.4 8.8-5.7 9.1-6.1 12.2-6.1 49.4V456h107v89H557v266H454V545h-92v-89h92v-32.1c0-34.9 1-45.7 5.6-61.6 12.6-43.4 46.2-78.3 85.7-88.8 14.4-3.9 20.6-4.2 71.5-4.4l47.2-.1-.2 47.2z" fill="#3b5998"/></g></svg>