<svg id="homeItem" xmlns="http://www.w3.org/2000/svg" width="50" height="50" viewBox="0 0 780 780">
    <circle cx="390" cy="390" r="390" />
    <path d="M614.9 359.8l-43.77-43.73v-107.2c0-16.6-13.6-30.18-30.2-30.18h-30.18c-16.6 0-30.2 13.57-30.2
    30.17v16.7l-60.36-60.32c-8.25-7.78-15.8-16.75-30.2-16.75-14.4 0-21.95 8.97-30.2 16.75L165.1 359.8c-9.4
    9.82-16.6 16.98-16.6 30.2 0 17 13.04 30.2 30.2 30.2h30.18v181.1c0 16.62 13.58 30.2 30.18
    30.2h90.57V480.56c0-16.6 13.58-30.2 30.18-30.2h60.4c16.6 0 30.18 13.6 30.18 30.2V631.5h90.56c16.6 0
    30.2-13.58 30.2-30.2V420.2h30.18c17.14 0 30.18-13.2 30.18-30.2 0-13.22-7.2-20.38-16.6-30.2z"
    style="fill:currentColor"/>
</svg>