<svg xmlns="http://www.w3.org/2000/svg" width="132" height="132" xmlns:xlink="http://www.w3.org/1999/xlink"><defs><linearGradient id="b"><stop offset="0" stop-color="#3771c8"/><stop stop-color="#3771c8" offset=".13"/><stop offset="1" stop-color="#60f" stop-opacity="0"/></linearGradient><linearGradient id="a"><stop offset="0" stop-color="#fd5"/><stop offset=".1" stop-color="#fd5"/><stop offset=".5" stop-color="#ff543e"/><stop offset="1" stop-color="#c837ab"/></linearGradient><radialGradient id="c" cx="158.43" cy="578.09" r="65" xlink:href="#a" gradientUnits="userSpaceOnUse" gradientTransform="matrix(0 -1.98198 1.8439 0 -1031.402 454.004)" fx="158.43" fy="578.09"/><radialGradient id="d" cx="147.69" cy="473.45" r="65" xlink:href="#b" gradientUnits="userSpaceOnUse" gradientTransform="matrix(.17394 .86872 -3.5818 .71718 1648.348 -458.493)" fx="147.69" fy="473.45"/></defs><path fill="url(#c)" d="M65.03 0C37.9 0 29.95.03 28.4.16c-5.56.46-9.03 1.34-12.8 3.22-2.92 1.44-5.2 3.12-7.48 5.46C4 13.14 1.5 18.4.6 24.66.14 27.7.02 28.32 0 43.84v21.13c0 27.12.03 35.05.16 36.6.45 5.4 1.3 8.82 3.1 12.55 3.44 7.14 10 12.5 17.75 14.5 2.7.7 5.65 1.07 9.45 1.25 1.6.07 18.02.12 34.44.12 16.4 0 32.83-.03 34.4-.1 4.4-.22 6.96-.56 9.78-1.3 7.8-2 14.24-7.28 17.75-14.52 1.77-3.64 2.66-7.18 3.07-12.32.08-1.12.12-18.98.12-36.8 0-17.84-.04-35.67-.13-36.8-.42-5.2-1.3-8.72-3.13-12.43-1.5-3.04-3.16-5.3-5.57-7.62-4.3-4.1-9.56-6.6-15.83-7.5-3.04-.44-3.64-.57-19.18-.6H65.02z" transform="translate(1.004 1)"/><path fill="url(#d)" d="M65.03 0C37.9 0 29.95.03 28.4.16c-5.56.46-9.03 1.34-12.8 3.22-2.92 1.44-5.2 3.12-7.48 5.46C4 13.14 1.5 18.4.6 24.66.14 27.7.02 28.32 0 43.84v21.13c0 27.12.03 35.05.16 36.6.45 5.4 1.3 8.82 3.1 12.55 3.44 7.14 10 12.5 17.75 14.5 2.7.7 5.65 1.07 9.45 1.25 1.6.07 18.02.12 34.44.12 16.4 0 32.83-.03 34.4-.1 4.4-.22 6.96-.56 9.78-1.3 7.8-2 14.24-7.28 17.75-14.52 1.77-3.64 2.66-7.18 3.07-12.32.08-1.12.12-18.98.12-36.8 0-17.84-.04-35.67-.13-36.8-.42-5.2-1.3-8.72-3.13-12.43-1.5-3.04-3.16-5.3-5.57-7.62-4.3-4.1-9.56-6.6-15.83-7.5-3.04-.44-3.64-.57-19.18-.6H65.02z" transform="translate(1.004 1)"/><path fill="#fff" d="M66 18c-13.03 0-14.67.06-19.8.3-5.1.22-8.6 1.03-11.64 2.22-3.15 1.23-5.83 2.87-8.5 5.54-2.67 2.66-4.3 5.34-5.54 8.5-1.2 3.05-2 6.54-2.23 11.65-.24 5.13-.3 6.76-.3 19.8s.06 14.67.3 19.8c.22 5.1 1.03 8.6 2.22 11.64 1.23 3.15 2.87 5.83 5.54 8.5 2.66 2.67 5.34 4.3 8.5 5.54 3.05 1.2 6.54 2 11.65 2.23 5.13.24 6.76.3 19.8.3 13.03 0 14.67-.06 19.8-.3 5.1-.22 8.6-1.03 11.64-2.22 3.16-1.23 5.83-2.87 8.5-5.54s4.3-5.35 5.54-8.5c1.18-3.05 2-6.54 2.23-11.65.24-5.13.3-6.76.3-19.8 0-13.04-.06-14.67-.3-19.8-.23-5.1-1.04-8.6-2.22-11.64-1.23-3.16-2.87-5.84-5.54-8.5-2.67-2.67-5.34-4.3-8.5-5.54-3.06-1.2-6.55-2-11.66-2.23-5.12-.24-6.75-.3-19.8-.3zm-4.3 8.65H66c12.82 0 14.34.05 19.4.28 4.68.2 7.22 1 8.9 1.65 2.25.87 3.85 1.9 5.53 3.6 1.68 1.67 2.72 3.27 3.6 5.5.65 1.7 1.43 4.24 1.64 8.92.23 5.06.28 6.58.28 19.4s-.05 14.32-.28 19.38c-.2 4.68-1 7.22-1.65 8.9-.87 2.25-1.9 3.84-3.6 5.52-1.67 1.68-3.27 2.72-5.5 3.6-1.7.65-4.24 1.43-8.92 1.65-5.06.23-6.58.28-19.4.28-12.8 0-14.33-.05-19.4-.28-4.67-.22-7.2-1-8.9-1.66-2.24-.88-3.84-1.92-5.52-3.6-1.68-1.68-2.72-3.27-3.6-5.52-.65-1.7-1.44-4.23-1.65-8.9-.23-5.07-.28-6.6-.28-19.4s.05-14.33.28-19.4c.2-4.67 1-7.2 1.65-8.9.87-2.25 1.92-3.85 3.6-5.53 1.68-1.68 3.28-2.72 5.52-3.6 1.7-.65 4.23-1.43 8.9-1.64 4.44-.2 6.15-.25 15.1-.26zm29.93 7.97c-3.18 0-5.76 2.58-5.76 5.76 0 3.18 2.58 5.76 5.76 5.76 3.18 0 5.76-2.58 5.76-5.76 0-3.18-2.6-5.76-5.77-5.76zM66 41.35C52.4 41.35 41.35 52.4 41.35 66c0 13.6 11.04 24.64 24.65 24.64 13.62 0 24.65-11.03 24.65-24.64S79.62 41.35 66 41.35zM66 50c8.84 0 16 7.16 16 16s-7.16 16-16 16c-8.83 0-16-7.16-16-16s7.17-16 16-16z"/></svg>