<svg id="Слой_1" xmlns="http://www.w3.org/2000/svg" viewBox="0 0 640 480"><style>.st0{fill:#FAFEFD;} .st1{fill:#8DFEE8;} .st2{fill:#C4FEF3;}</style><path class="st0" d="M331 223.4c.4 3.8.7 7.6 1.1 11.3-2.5 2.9-4.9 5.8-7.4 8.6-9.2 10.4-24.5 20.7-8.5 35.4 15.3 14.1 25.6-1.6 35.7-10.5 17.1-14.9 29.9-33.8 47-49.1 15.4-13.8 9-30.3-7.7-39.9-13.4-7.6-25.6-16.1-36.4-27.1-9.3-9.4-20.1-22.5-33.8-11.5-16 12.9-2.3 25.1 5.9 36.5.5.7-1.1 3-2.3 5.9-10.9 0-22.3-.6-33.6.1-16 1.1-24.8 12.6-25.4 26.3-.8 16.9 14.5 14 25.5 14.2 13.2.6 26.5 0 39.9-.2z"/><path class="st1" d="M331 223.4c-13.3.2-26.6.8-40 .5-10.9-.2-26.2 2.7-25.5-14.2.6-13.7 9.4-25.2 25.4-26.3 11.3-.7 22.7-.1 33.6-.1 1.2-2.9 2.8-5.2 2.3-5.9-8.2-11.4-21.9-23.6-5.9-36.5 13.6-11 24.5 2.1 33.8 11.5 10.8 10.9 23 19.4 36.4 27.1 16.7 9.5 23.1 26.1 7.7 39.9-17.1 15.3-29.9 34.2-47 49.1-10.2 8.8-20.4 24.5-35.7 10.5-16-14.7-.8-25 8.5-35.4 2.5-2.8 5-5.8 7.4-8.7 4.5-1 10.2-1.5 8.3-7.9-.5-2-6.1-2.5-9.3-3.6z"/><path class="st2" d="M331 223.4c3.3 1.1 8.8 1.5 9.4 3.5 1.9 6.4-3.9 6.9-8.3 7.9-.4-3.8-.8-7.6-1.1-11.4z"/></svg>