<svg xmlns="http://www.w3.org/2000/svg" width="512" height="512" viewBox="0 0 97.75 97.75"><g fill="#f29913"><path d="M48.92 40.5c4.67 0 8.38-3.76 8.37-8.44-.03-4.68-3.75-8.4-8.42-8.4-4.7 0-8.47 3.8-8.44 8.5.04 4.67 3.8 8.36 8.48 8.35z"/><path d="M48.88 0C21.88 0 0 21.88 0 48.88s21.88 48.87 48.88 48.87 48.87-21.88 48.87-48.88S75.87 0 48.87 0zm.06 14.86c9.53.03 17.17 7.82 17.12 17.44-.05 9.4-7.82 17.03-17.32 17-9.4-.04-17.12-7.84-17.07-17.26.06-9.52 7.77-17.2 17.27-17.18zm19.3 41.2c-2.12 2.16-4.65 3.72-7.47 4.8-2.66 1.04-5.57 1.56-8.46 1.9l.93 1c3.9 3.93 7.85 7.84 11.75 11.8 1.33 1.34 1.6 3 .88 4.57-.8 1.7-2.6 2.83-4.35 2.7-1.1-.07-1.98-.62-2.75-1.4-2.95-2.97-5.97-5.9-8.86-8.92-.86-.87-1.26-.7-2 .06-2.98 3.06-6 6.08-9.04 9.07-1.36 1.35-3 1.6-4.57.82-1.7-.8-2.76-2.53-2.68-4.26.06-1.18.63-2.07 1.43-2.87 3.88-3.87 7.74-7.75 11.6-11.63.27-.25.5-.53.88-.93-5.28-.55-10.03-1.84-14.1-5.03-.5-.4-1.03-.78-1.5-1.22-1.77-1.7-1.95-3.67-.54-5.7 1.2-1.72 3.22-2.18 5.32-1.2.4.2.8.45 1.17.7 7.58 5.22 18 5.36 25.62.24.75-.58 1.56-1.06 2.5-1.3 1.8-.46 3.5.2 4.48 1.8 1.1 1.8 1.1 3.6-.27 5z"/></g></svg>