<svg id="Слой_1" xmlns="http://www.w3.org/2000/svg" viewBox="0 0 640 480"><style>.st0{fill:#FAFEFD;} .st1{fill:#8DFEE8;}</style><path class="st0" d="M295.3 78c-26.4 17.9-42 46.1-65.1 67.2-9.2 8.4-13 21.9-4.3 29.9 19.4 17.8 41.3 33.1 62.8 48.4 5.4 3.8 13.6 7.7 19.7-1 4.7-6.7 5.2-13.9 1.1-20.9-3.2-5.3-7.4-9.9-11.2-14.8 13.7-11.6 29.6-2.3 43.5-7.5 13.5-5.1 19.5-15 18.6-27.6-1-13.6-13.3-12.6-23.6-13.2-16.7-1.1-33.9 3.9-52.4-2.6 35.2-25.1 37.9-33 22.2-57.9M217.3 245.4c-9.7.1-11.6-1.8-11.4-11.4"/><path class="st1" d="M306.4 78c15.8 24.9 13 32.8-22.2 57.9 18.5 6.5 35.8 1.5 52.4 2.6 10.4.7 22.6-.3 23.6 13.2 1 12.5-5.1 22.5-18.6 27.6-13.9 5.3-29.8-4.1-43.5 7.5 3.8 4.9 8 9.5 11.2 14.8 4.1 6.9 3.6 14.1-1.1 20.9-6.1 8.7-14.3 4.8-19.7 1-21.5-15.3-43.4-30.6-62.8-48.4-8.7-8-4.9-21.5 4.3-29.9 23-21.1 38.7-49.3 65.1-67.2h11.3z"/></svg>