<svg width="640" height="480" xmlns="http://www.w3.org/2000/svg"><title>search icon light grey</title><title>Layer 1</title><path d="M243.94 116.1c-43.27 43.26-43.38 114.14-.1 157.42 36.66 36.66 93.2 42.25 135.9 16.76l76.36 74.24c10.5 10.2 27.08 9.82 37.1-.85 10.05-10.66 9.78-27.44-.72-37.64l-75.2-72.86c26.37-42.85 21.02-100.05-16-137.08-43.3-43.3-114.07-43.3-157.34 0zm31.74 31.72c26.1-26.1 67.74-26.1 93.85 0 26.1 26.1 26.1 67.75 0 93.85-26.1 26.1-67.75 26.1-93.85 0-26.1-26.1-26.1-67.74 0-93.85z" fill="#bfbfbf"/></svg>