<svg height="500" width="500" xmlns="http://www.w3.org/2000/svg"><g transform="translate(0 -552.362)"><rect height="500" rx="250" ry="250" width="500" y="552.36" fill="#49c8f5"/><path d="M174.93 642.36c-16.45 0-29.84 6.77-35.47 23.55-7.4 22.07-5.4 47.9-5.32 70.86.03 4.36.04 8.75.05 13.13.05 15.03.38 30.16.44 45.28.04 16.27.05 32.53.05 48.8 0 91.1 82.77 116.9 98.65 116.9 15.88 0 78.1 1.48 89.34 1.48 11.23 0 43.47-2.98 43.47-35.6 0-32.62-22.85-44.32-38.3-44.32H266.1c-43.96 0-50.96-19.45-50.96-37.47 0-8.56.55-22.67 1.08-39.95H319.4c15.45 0 44.93-6.3 44.93-34.55 0-28.23-13.65-46.77-31.87-46.77H217.48c-.12-40.74-2.75-81.34-42.55-81.34z" fill="#fff"/></g></svg>