<svg id="Capa_1" xmlns="http://www.w3.org/2000/svg" viewBox="-249 340.8 112.2 112.2"><style>.st0{fill:#F0534E;enable-background:new ;} .st1{opacity:0.4;fill:#AD534E;enable-background:new ;} .st2{fill:#FFFFFF;}</style><path class="st0" d="M-192.9 340.8c-31 0-56.1 25.1-56.1 56.1s25.1 56.1 56.1 56.1c4.9 0 9.7-.6 14.3-1.8 23.1-6.1 40.3-26.4 41.7-51.1.1-1 .1-2.1.1-3.2 0-31-25.1-56.1-56.1-56.1z"/><path class="st1" d="M-136.9 400.1l-20.6-17.4-2.4-1.1-12.3 12.2-16.4-12.5h-15.2l5.7 20.9-2.2 2.2-13.3 8.6 34.9 38.3c23.2-6.2 40.4-26.6 41.8-51.2z"/><path class="st2" d="M-195 421.5h4.4s1.3-.1 2-.9c.6-.7.6-1.9.6-1.9s-.1-5.9 2.7-6.8c2.7-.9 6.2 5.7 9.9 8.2 2.8 1.9 4.9 1.5 4.9 1.5l9.8-.1s5.1-.3 2.7-4.4c-.2-.3-1.4-3-7.3-8.5-6.2-5.7-5.3-4.8 2.1-14.7 4.5-6 6.3-9.7 5.8-11.3-.5-1.5-3.9-1.1-3.9-1.1l-11.1.1s-.8-.1-1.4.3c-.6.4-1 1.2-1 1.2s-1.8 4.7-4.1 8.6c-4.9 8.4-6.9 8.8-7.7 8.3-1.9-1.2-1.4-4.9-1.4-7.5 0-8.1 1.2-11.5-2.4-12.4-1.2-.3-2.1-.5-5.2-.5-4 0-7.3 0-9.2.9-1.3.6-2.2 2-1.6 2.1.7.1 2.4.4 3.3 1.6 1.1 1.5 1.1 5 1.1 5s.7 9.6-1.5 10.7c-1.5.8-3.5-.8-7.9-8.4-2.3-3.9-4-8.2-4-8.2s-.3-.8-.9-1.2c-.7-.5-1.7-.7-1.7-.7l-10.5.1s-1.6 0-2.2.7c-.5.6 0 1.9 0 1.9s8.2 19.3 17.6 29c8.4 9 18.1 8.4 18.1 8.4z"/></svg>